# xmcd
#
# Track frame offsets:
#	150
#	11980
#	22971
#	34435
#	59215
#	72805
#	95618
#	105244
#	115546
#	131160
#	148560
#	170846
#
# Disc length: 2565 seconds
#
# Revision: 1
# Processed by: cddbd v1.4PL0 Copyright (c) Steve Scherf et al.
# Submitted via: MusicWizard 6.0.2
#
DISCID=ac0a030c
DTITLE=Amy Grant - Home For Christmas
DYEAR=1900
DGENRE=Christmas
TTITLE0=Have Yourself A Merry Little Christmas
TTITLE1=Its The Most Wonderful Time Of The Year
TTITLE2=Joy To The World/For Unto Us A Child Is Born
TTITLE3=Breath Of Heaven (Mary's Song)
TTITLE4=O'Come All Ye Faithful
TTITLE5=Grown-Up Christmas List
TTITLE6=Rock'in Around The Christmas Tree
TTITLE7=Winter Wonderland
TTITLE8=I'll Be Home For Christmas
TTITLE9=The Night Before Christmas
TTITLE10=Emmanuel, God With Us
TTITLE11=Joy Of Man's Desiring
EXTD=
EXTT0=
EXTT1=
EXTT2=
EXTT3=
EXTT4=
EXTT5=
EXTT6=
EXTT7=
EXTT8=
EXTT9=
EXTT10=
EXTT11=
PLAYORDER=
